<svg width="32" height="32" viewBox="0 0 32 32" fill="none" xmlns="http://www.w3.org/2000/svg">
<path d="M21.4134 8.2634C20.6684 8.2634 19.9742 8.37761 19.3306 8.60604C18.6869 8.83447 18.1009 9.06239 17.5725 9.28981C17.0441 9.51723 16.5863 9.63145 16.1989 9.63245C15.5781 9.63245 14.868 9.4161 14.0684 8.9834C13.2689 8.55069 12.3804 8.33434 11.4031 8.33434C10.1774 8.33434 8.99795 8.67648 7.86467 9.36075C6.73139 10.045 5.80421 11.0473 5.08312 12.3675C4.36203 13.6878 4.00099 15.315 4 17.2491C4 19.0413 4.29499 20.834 4.88497 22.6272C5.47495 24.4204 6.20448 25.9298 7.07356 27.1555C7.81849 28.193 8.5361 29.0931 9.22639 29.8558C9.91669 30.6186 10.7277 31 11.6593 31C12.2801 31 12.8154 30.8938 13.2654 30.6815C13.7153 30.4692 14.1886 30.2609 14.6852 30.0566C15.1818 29.8523 15.8026 29.7502 16.5475 29.7502C17.3232 29.7502 17.944 29.8483 18.4098 30.0445C18.8757 30.2408 19.3216 30.441 19.7477 30.6453C20.1738 30.8496 20.7285 30.9517 21.4119 30.9517C22.4051 30.9517 23.2628 30.5628 23.9849 29.7849C24.7069 29.007 25.3784 28.1542 25.9991 27.2264C26.6974 26.1889 27.2054 25.2375 27.5232 24.3721C27.8411 23.5067 28 23.0428 28 22.9804C27.9841 22.9804 27.7785 22.8702 27.3832 22.6498C26.9879 22.4294 26.534 22.0833 26.0215 21.6113C25.509 21.1394 25.059 20.5185 24.6717 19.7487C24.2843 18.9789 24.0901 18.0355 24.0891 16.9185C24.0891 15.6445 24.3414 14.595 24.846 13.7698C25.3505 12.9447 25.8626 12.3273 26.382 11.9177C26.9015 11.5082 27.1846 11.2722 27.2312 11.2098C26.5638 10.2508 25.8303 9.56704 25.0307 9.15849C24.2312 8.74994 23.4977 8.49837 22.8302 8.40377C22.1628 8.30918 21.6895 8.26189 21.4104 8.26189L21.4134 8.2634ZM20.3422 5.78642C20.8229 5.23597 21.2033 4.59547 21.4834 3.86491C21.7635 3.13434 21.903 2.38365 21.902 1.61283C21.902 1.33006 21.8941 1.12579 21.8782 1C21.1174 1.0161 20.3298 1.24403 19.5153 1.68377C18.7008 2.12352 18.0294 2.65836 17.501 3.2883C17.0819 3.77535 16.7094 4.3766 16.3836 5.09208C16.0579 5.80755 15.895 6.55824 15.895 7.34415C15.895 7.59572 15.9183 7.77635 15.965 7.88604C15.9958 7.88604 16.0499 7.89006 16.1274 7.89811C16.2049 7.90616 16.2903 7.91019 16.3836 7.91019C17.0352 7.91019 17.7374 7.70994 18.4903 7.30943C19.2432 6.90893 19.86 6.40176 20.3407 5.78792L20.3422 5.78642Z" fill="white"/>
</svg>
