<svg width="32" height="32" viewBox="0 0 32 32" fill="none" xmlns="http://www.w3.org/2000/svg">
<path d="M13.4334 31.4002C6.04451 30.078 0.44458 23.7004 0.44458 16.0002C0.44458 7.44477 7.44457 0.444458 16 0.444458C24.5554 0.444458 31.5557 7.44477 31.5557 16.0002C31.5557 23.7004 25.9558 30.078 18.5666 31.4002L17.7111 30.7003H14.2892L13.4334 31.4002Z" fill="#4267B2"/>
<path d="M22.0666 20.3556L22.7668 16.0001H18.6445V12.9667C18.6445 11.7224 19.1115 10.789 20.9779 10.789H23V6.8223C21.9113 6.66663 20.6669 6.51096 19.5779 6.51096C16 6.51096 13.5112 8.68904 13.5112 12.5779V16.0001H9.62238V20.3556H13.5109V31.3223C14.3665 31.4779 15.222 31.5558 16.0779 31.5558C16.9331 31.5558 17.7886 31.4779 18.6442 31.3223V20.3556H22.0666Z" fill="white"/>
</svg>
