<svg width="32" height="32" viewBox="0 0 32 32" fill="none" xmlns="http://www.w3.org/2000/svg">
<g clip-path="url(#clip0_571_766)">
<path d="M30.8944 16.3501C30.8944 15.326 30.8037 14.3538 30.6481 13.4075H16V19.2538H24.387C24.0111 21.1723 22.9093 22.7927 21.2759 23.8945V27.7834H26.2796C29.2093 25.0741 30.8944 21.0815 30.8944 16.3501Z" fill="#4285F4"/>
<path d="M16 31.5557C20.2 31.5557 23.713 30.1556 26.2796 27.7834L21.2759 23.8945C19.8759 24.8278 18.1 25.3983 16 25.3983C11.9426 25.3983 8.50744 22.6631 7.27596 18.9686H2.1167V22.9742C4.6704 28.0557 9.9204 31.5557 16 31.5557Z" fill="#34A853"/>
<path d="M7.27596 18.9686C6.95189 18.0353 6.78335 17.037 6.78335 15.9999C6.78335 14.9629 6.96483 13.9648 7.27594 13.0314V9.02588H2.11668C1.05372 11.1259 0.444458 13.4851 0.444458 15.9999C0.444458 18.5148 1.05374 20.8742 2.1167 22.9742L7.27596 18.9686Z" fill="#FBBC05"/>
<path d="M16 6.60187C18.2945 6.60187 20.3426 7.39261 21.963 8.9352L26.3963 4.50187C23.713 1.98705 20.2 0.444458 16 0.444458C9.9204 0.444458 4.67038 3.9444 2.11668 9.02588L7.27594 13.0314C8.50742 9.33699 11.9426 6.60187 16 6.60187Z" fill="#EA4335"/>
</g>
<defs>
<clipPath id="clip0_571_766">
<rect width="31.1111" height="31.1111" fill="white" transform="translate(0.444458 0.444458)"/>
</clipPath>
</defs>
</svg>
