<?xml version="1.0" standalone="no"?>
<!DOCTYPE svg PUBLIC "-//W3C//DTD SVG 20010904//EN"
 "http://www.w3.org/TR/2001/REC-SVG-20010904/DTD/svg10.dtd">
<svg version="1.0" xmlns="http://www.w3.org/2000/svg"
 width="76.000000pt" height="76.000000pt" viewBox="0 0 76.000000 76.000000"
 preserveAspectRatio="xMidYMid meet">
<metadata>
Created by potrace 1.14, written by Peter Selinger 2001-2017
</metadata>
<g transform="translate(0.000000,76.000000) scale(0.100000,-0.100000)"
fill="#000000" stroke="none">
<path d="M340 737 c-138 -72 -253 -144 -270 -167 -18 -25 -20 -44 -20 -193 0
-147 2 -167 19 -189 25 -31 282 -178 312 -178 27 0 28 1 192 95 129 74 148 96
146 167 l-2 43 -7 -50 c-10 -72 -16 -81 -73 -113 -29 -16 -81 -46 -117 -67
-102 -59 -114 -65 -138 -65 -24 0 -250 126 -294 164 l-28 24 0 169 c0 144 3
171 18 190 22 29 259 163 297 169 24 4 55 -9 150 -64 183 -105 172 -94 182
-157 7 -43 16 -47 10 -4 -7 58 -23 75 -110 125 -216 124 -220 125 -267 101z"/>
<path d="M180 581 l-25 -6 0 -197 0 -198 40 0 41 0 -1 58 c-2 76 11 122 34
122 10 0 37 -18 61 -40 24 -22 48 -40 53 -40 5 0 29 18 53 40 71 65 91 51 95
-67 3 -68 4 -72 30 -75 49 -8 49 -9 49 203 l0 199 -43 0 -42 0 -33 -70 c-34
-74 -65 -100 -118 -100 -34 0 -92 58 -122 122 -23 50 -34 57 -72 49z"/>
<path d="M275 533 c53 -93 108 -124 153 -85 19 15 72 109 72 126 0 19 -22 1
-34 -29 -26 -62 -91 -107 -110 -76 -3 4 5 6 17 4 27 -5 62 27 83 75 12 31 12
32 -10 32 -13 0 -30 -10 -38 -22 -11 -16 -20 -20 -41 -14 -15 3 -27 12 -27 18
0 9 3 9 12 0 17 -17 45 -15 52 3 5 13 -2 15 -39 14 -37 -2 -45 -6 -40 -18 3
-11 1 -10 -9 3 -27 35 -37 12 -11 -27 14 -20 23 -37 21 -37 -3 0 -18 18 -32
40 -37 56 -52 50 -19 -7z m156 14 c-10 -9 -11 -8 -5 6 3 10 9 15 12 12 3 -3 0
-11 -7 -18z m-76 -27 c10 -11 16 -20 13 -20 -3 0 -13 9 -23 20 -10 11 -16 20
-13 20 3 0 13 -9 23 -20z m60 0 c-3 -5 -14 -10 -23 -9 -14 0 -13 2 3 9 27 11
27 11 20 0z"/>
<path d="M713 430 c0 -25 2 -35 4 -22 2 12 2 32 0 45 -2 12 -4 2 -4 -23z"/>
<path d="M712 340 c0 -14 2 -19 5 -12 2 6 2 18 0 25 -3 6 -5 1 -5 -13z"/>
<path d="M263 323 c-5 -10 -8 -38 -7 -63 2 -84 -6 -77 99 -77 52 0 95 3 95 6
0 4 -17 7 -38 7 -21 0 -50 9 -65 19 -38 25 -34 31 6 7 32 -20 67 -17 82 7 3 6
11 11 17 11 5 0 0 -9 -13 -21 -18 -15 -20 -19 -6 -15 11 4 20 -1 25 -12 5 -13
8 -11 13 13 7 29 7 29 8 3 1 -18 6 -26 18 -24 14 2 16 14 14 72 -1 38 -7 73
-12 79 -6 6 -24 -5 -50 -33 -52 -54 -77 -54 -129 -2 -22 22 -42 40 -45 40 -2
0 -8 -8 -12 -17z m73 -64 c3 -6 -5 -4 -18 5 -14 9 -28 13 -33 9 -4 -5 -5 -2
-1 5 8 13 39 2 52 -19z m152 19 c7 -7 12 -16 12 -22 0 -5 -6 -2 -13 7 -11 16
-16 15 -57 -14 l-45 -31 40 35 c45 41 47 41 63 25z m-113 -46 c-3 -3 -11 0
-18 7 -9 10 -8 11 6 5 10 -3 15 -9 12 -12z m-75 -17 c-10 -12 -10 -15 0 -15 8
0 11 -2 8 -5 -3 -3 -12 -3 -21 1 -14 5 -14 7 1 23 20 21 30 18 12 -4z m45 -15
c3 -5 2 -10 -4 -10 -5 0 -13 5 -16 10 -3 6 -2 10 4 10 5 0 13 -4 16 -10z"/>
</g>
</svg>
