<svg width="16" height="16" viewBox="0 0 16 16" fill="none" xmlns="http://www.w3.org/2000/svg">
<path d="M7.49972 5.3186C7.12586 5.23682 6.84547 4.80452 6.65854 4.52411C6.54171 4.33717 6.43656 4.13854 6.33142 3.93992H6.67022C6.71695 4.03339 6.77537 4.12686 6.83379 4.22033C6.97398 4.43064 7.18428 4.7461 7.48804 4.8162C7.53477 4.82788 7.5815 4.82788 7.62823 4.82788C7.82684 4.82788 8.02545 4.73441 8.17733 4.57084C8.29416 4.43064 8.37595 4.26706 8.45773 4.11518C8.49278 4.04507 8.52783 3.97497 8.56288 3.90487H8.91337C8.85495 4.06844 8.78485 4.23201 8.70307 4.3839C8.58624 4.60589 8.46941 4.82788 8.30585 5.00314C8.08387 5.24849 7.7918 5.35365 7.5114 5.28355L7.49972 5.3186ZM9.70781 10.0271C9.74286 10.0388 9.77791 10.0856 9.80128 10.1557C9.88306 10.4127 9.95316 11.289 9.96484 12.0835H9.73118C9.7195 11.6278 9.69613 11.2422 9.6494 11.067C9.61435 10.9151 9.54425 10.8216 9.4391 10.7866C9.21712 10.7048 8.93673 10.9151 8.60961 11.1605C8.35258 11.3591 8.0605 11.5811 7.85021 11.5928C7.5815 11.6044 7.25438 11.3357 6.9623 11.102C6.69359 10.8801 6.45993 10.6931 6.273 10.7165C6.2029 10.7282 6.14449 10.7632 6.09775 10.8216C5.93419 11.0436 5.95755 11.5343 5.9926 12.1068H5.75894C5.75894 11.9082 5.74726 11.6979 5.73558 11.4993C5.71221 10.9385 5.68885 10.2959 5.86409 10.1089C5.98092 9.99209 6.29636 10.2374 6.60012 10.4828C6.99734 10.7983 7.4413 11.1488 7.87357 11.1371C8.22407 11.1254 8.62129 10.7866 8.97178 10.4945C9.24049 10.2725 9.54425 10.0155 9.68444 10.0622L9.70781 10.0271ZM9.97652 8.78867C10.0116 8.78867 10.0583 8.82372 10.105 8.89382C10.1751 8.99898 10.3854 9.52474 10.3737 12.0952H10.105C10.0934 11.289 10.0349 10.401 9.94148 10.1089C9.89474 9.98041 9.82464 9.89862 9.73118 9.86357C9.49752 9.79347 9.19376 10.0505 8.84327 10.3426C8.51614 10.623 8.14229 10.9385 7.85021 10.9502C7.48804 10.9618 7.06745 10.6347 6.70527 10.3426C6.30805 10.0271 5.95756 9.74673 5.73558 9.98041C5.50192 10.2258 5.52528 10.845 5.54865 11.4993C5.56033 11.6979 5.57202 11.9082 5.57202 12.1068H5.17479C5.17479 11.99 5.17479 11.8615 5.17479 11.7213C5.16311 11.1838 5.13974 10.4478 5.18648 9.8402C5.25657 8.88214 5.4435 8.80035 5.4435 8.80035C5.61875 8.73025 5.99261 9.1275 6.29637 9.44296C6.75201 9.93367 7.26606 10.4828 7.8619 10.4594C8.3409 10.4361 8.77317 9.95704 9.19376 9.48969C9.47416 9.17423 9.82465 8.78867 10.0116 8.80035L9.97652 8.78867ZM7.46467 6.13646C6.9623 6.01962 6.57676 5.43544 6.31973 5.04988C6.08607 4.68768 5.88746 4.30212 5.70053 3.90487H6.12112C6.23795 4.13854 6.35478 4.36054 6.49498 4.58253C6.69359 4.8863 6.99735 5.35365 7.4413 5.45881C7.5114 5.47049 7.5815 5.48218 7.6516 5.48218C7.93199 5.48218 8.21239 5.35365 8.42268 5.11998C8.59792 4.92136 8.71476 4.68768 8.83159 4.46569C8.92505 4.27875 9.00683 4.09181 9.07693 3.90487H9.49752C9.38069 4.2437 9.25218 4.58253 9.08861 4.89799C8.93673 5.19008 8.77317 5.49386 8.55119 5.73922C8.24743 6.07804 7.83853 6.21825 7.45298 6.12478L7.46467 6.13646ZM12.3599 3.91655V12.0952H10.8294C10.8411 9.17423 10.5724 8.78867 10.4789 8.64846C10.3504 8.47321 10.1985 8.37974 10.0233 8.36805C9.62603 8.34468 9.26386 8.74193 8.84327 9.1976C8.50446 9.57148 8.11892 10.0038 7.82684 10.0155C7.42962 10.0271 6.98566 9.54811 6.58844 9.1275C6.1328 8.64846 5.71221 8.1928 5.26826 8.37974C4.7542 8.59004 4.68411 9.71168 4.73084 11.7096C4.73084 11.8498 4.73084 11.9783 4.73084 12.0835H3.15363V3.90487H4.60232C4.8944 4.55916 5.19816 5.19008 5.5837 5.78595C5.95756 6.34677 6.51834 7.19968 7.33616 7.38662C7.46467 7.42167 7.59318 7.43336 7.7217 7.43336C8.24743 7.43336 8.76149 7.19968 9.15871 6.76738C9.48584 6.40519 9.70781 5.97289 9.92979 5.56396C10.2102 5.02651 10.4205 4.46569 10.6074 3.91656L12.3599 3.91655ZM7.42962 6.95432C6.77537 6.80243 6.273 6.03131 5.94587 5.52891C5.60707 5.01482 5.32667 4.46569 5.06965 3.89319H5.50192C5.70053 4.32548 5.91083 4.7461 6.16785 5.13166C6.43656 5.54059 6.84547 6.15983 7.41794 6.30003C7.5114 6.3234 7.60486 6.33509 7.69833 6.33509C8.0605 6.33509 8.42268 6.17151 8.70307 5.86774C8.93673 5.61069 9.10029 5.29523 9.26386 4.99146C9.45078 4.64095 9.59098 4.27875 9.7195 3.91655H10.1635C9.99989 4.40727 9.81296 4.89799 9.56762 5.36534C9.35732 5.7509 9.14703 6.15983 8.85495 6.47529C8.46941 6.90759 7.94367 7.09453 7.45298 6.97769L7.42962 6.95432ZM7.5114 4.61758C7.27774 4.55916 7.09081 4.27875 6.97398 4.09181C6.93893 4.03339 6.90388 3.97497 6.86883 3.91655H8.35258C8.32921 3.9516 8.30585 3.98666 8.28248 4.02171C8.21238 4.16191 8.1306 4.3138 8.02545 4.43064C7.88526 4.58253 7.69833 4.65263 7.52308 4.60589L7.5114 4.61758ZM9.06525 11.7096C9.11198 11.733 9.13534 11.8148 9.14703 11.8849C9.15871 11.9316 9.15871 12.0017 9.15871 12.0835H8.29416C8.36426 12.0367 8.43436 11.99 8.50446 11.9433C8.71475 11.8031 8.94841 11.6512 9.05356 11.6979L9.06525 11.7096ZM6.61181 11.6862C6.67022 11.6629 6.8922 11.8031 7.05576 11.9082C7.14923 11.9666 7.24269 12.0251 7.33616 12.0835H6.55339C6.55339 11.9199 6.56507 11.7914 6.60012 11.7096V11.6979L6.61181 11.6862ZM9.40405 10.9502C9.4391 10.9618 9.47415 11.0086 9.49752 11.0904C9.53257 11.2539 9.55593 11.6278 9.56762 12.0718H9.40405C9.40405 11.9783 9.39237 11.8965 9.38069 11.8381C9.34564 11.6745 9.27554 11.5694 9.17039 11.5227C8.97178 11.4409 8.71475 11.6044 8.44604 11.7797C8.24743 11.9199 8.01377 12.0718 7.85021 12.0718C7.66328 12.0601 7.40626 11.8965 7.17259 11.7447C6.91557 11.5811 6.71695 11.4526 6.57676 11.4993C6.54171 11.511 6.48329 11.546 6.44824 11.6278C6.40151 11.733 6.38983 11.8849 6.38983 12.0718H6.16785C6.1328 11.5694 6.10944 11.067 6.23795 10.9034C6.26132 10.8801 6.273 10.8801 6.28468 10.8801C6.40151 10.8684 6.62349 11.0553 6.83379 11.2306C7.14923 11.4876 7.5114 11.7797 7.85021 11.768C8.11892 11.7563 8.42268 11.5227 8.71475 11.3007C8.9601 11.1137 9.24049 10.9034 9.369 10.9502L9.40405 10.9502ZM13.4658 3.49384C14.1643 3.89713 14.5135 4.50206 14.5135 5.30863V10.6914C14.5135 11.498 14.1643 12.1029 13.4658 12.5061L8.80443 15.1975C8.10598 15.6008 7.40751 15.6008 6.70903 15.1975L2.0477 12.5061C1.34923 12.1029 1 11.498 1 10.6914V5.30863C1 4.50206 1.34923 3.89713 2.0477 3.49384L6.70903 0.802465C7.40751 0.399178 8.10597 0.399178 8.80443 0.802465L13.4658 3.49384ZM1.19538 5.30863V10.6914C1.19538 11.4227 1.51205 11.9712 2.14539 12.337L6.80672 15.0284C7.44006 15.394 8.0734 15.394 8.70675 15.0284L13.368 12.337C14.0014 11.9713 14.3181 11.4228 14.3181 10.6914V5.30863C14.3181 4.57726 14.0014 4.02874 13.368 3.66306L8.70675 0.971681C8.07341 0.606001 7.44006 0.606001 6.80672 0.971682L2.14539 3.66306C1.51205 4.02874 1.19538 4.57726 1.19538 5.30863Z" fill="#FF4081"/>
</svg>
